<svg width="105" height="117" viewBox="0 0 105 117" fill="none" xmlns="http://www.w3.org/2000/svg">
<path opacity="0.98" d="M52.5439 0.0380859C52.0771 0.0418554 51.61 0.0460062 51.1429 0.061461C29.6935 0.168514 10.449 15.0839 10.3945 31.9017C10.1518 35.866 10.4652 39.8334 10.4095 43.7992H0.0752711C0.34898 61.2239 -0.481764 78.6893 0.512131 96.0891C2.65047 107.293 15.5165 117.425 30.5199 116.88C46.9472 116.855 63.4256 117.277 79.8241 116.621C95.2179 114.547 106.028 102.186 104.861 90.2228C105.038 74.7526 104.844 59.282 104.921 43.8133C101.492 43.7448 98.0616 43.8657 94.6322 43.7779C94.8926 34.358 95.459 24.061 88.5917 15.8956C81.1652 6.2058 67.0117 -0.0322718 52.5434 0.0404787L52.5439 0.0380859ZM52.7397 13.4905C64.9264 13.6211 76.9671 21.513 76.6162 31.4425C76.8581 35.5595 77.0193 39.6788 77.1284 43.7992C60.7334 43.7917 44.3388 43.8192 27.9447 43.7755C27.9956 37.3304 25.7838 30.2834 30.2947 24.4807C34.3905 18.3324 42.5774 13.6273 51.5652 13.5022C51.9582 13.4901 52.3471 13.486 52.7402 13.4905H52.7397Z" fill="white"/>
<path opacity="0.98" d="M51.4833 2.2994C30.2104 2.71811 13.2508 16.2581 13.2508 32.9971V46.0488H2.96191V90.4342H2.97686C2.96192 90.7548 2.96191 91.0762 2.96191 91.4001C2.96191 104.29 15.0378 114.665 30.047 114.665H74.9231C89.9323 114.665 102.024 104.29 102.024 91.4001C102.024 91.0763 102.008 90.7546 101.993 90.4342H102.024V46.0488H91.7496V32.9971C91.7496 15.9927 74.2535 2.2994 52.5077 2.2994C52.1679 2.2994 51.821 2.29262 51.4833 2.2994ZM51.3026 11.2519C51.5607 11.247 51.8263 11.2519 52.0859 11.2519C64.518 11.0247 76.7376 18.2167 79.2765 27.7666C79.7088 33.8603 79.9522 39.9491 80.09 46.0485H24.9867C24.9736 43.132 24.9563 40.2224 24.8813 37.3078C21.7345 24.8366 35.0405 11.5504 51.3035 11.2515L51.3026 11.2519ZM52.4474 62.2827C53.034 62.2827 53.6271 62.3186 54.225 62.3888C60.6026 63.1369 65.0037 67.7795 64.0468 72.7664C63.6063 75.0628 62.0914 77.0387 59.9795 78.4206L64.0619 98.4342H40.9234L44.9907 78.4206C41.982 76.4448 40.3129 73.3183 40.9384 70.0569C41.8055 65.5373 46.7771 62.2945 52.4474 62.2824V62.2827Z" fill="black"/>
</svg>
